<?xml version="1.0" standalone="no"?>
<!DOCTYPE svg PUBLIC "-//W3C//DTD SVG 20010904//EN"
 "http://www.w3.org/TR/2001/REC-SVG-20010904/DTD/svg10.dtd">
<svg version="1.0" xmlns="http://www.w3.org/2000/svg"
 width="512.000000pt" height="512.000000pt" viewBox="0 0 512.000000 512.000000"
 preserveAspectRatio="xMidYMid meet">
<metadata>
Created by potrace 1.14, written by Peter Selinger 2001-2017
</metadata>
<g transform="translate(0.000000,512.000000) scale(0.100000,-0.100000)"
fill="#000000" stroke="none">
<path d="M2371 5109 c-614 -47 -1181 -307 -1617 -743 -674 -675 -915 -1651
-634 -2571 62 -205 229 -559 278 -591 54 -35 136 -14 166 44 17 35 136 500
136 535 0 15 -12 41 -28 58 -23 25 -38 33 -78 36 -43 5 -54 2 -81 -21 -26 -22
-35 -42 -54 -121 -13 -52 -26 -95 -29 -95 -9 0 -77 190 -110 308 -50 180 -71
328 -77 539 -12 405 61 742 236 1098 146 296 328 532 566 734 325 277 674 444
1104 528 127 25 154 27 406 27 215 1 291 -3 370 -17 280 -49 505 -128 757
-265 112 -60 150 -66 197 -26 47 39 58 105 26 155 -16 24 -62 53 -190 117
-312 157 -624 244 -979 272 -143 11 -211 11 -365 -1z"/>
<path d="M2470 4413 c-451 -24 -863 -200 -1187 -506 -302 -286 -496 -660 -559
-1077 -20 -138 -21 -402 0 -539 125 -827 766 -1458 1596 -1572 122 -16 385
-14 509 5 606 92 1117 461 1390 1004 131 261 193 526 193 832 0 315 -63 579
-201 848 -258 500 -721 853 -1271 968 -96 20 -370 48 -405 42 -5 -1 -35 -3
-65 -5z m418 -262 c142 -31 265 -75 397 -141 161 -81 287 -173 420 -305 228
-229 375 -498 447 -822 19 -85 22 -128 22 -323 0 -195 -3 -238 -22 -323 -144
-648 -621 -1125 -1269 -1269 -85 -19 -129 -22 -323 -22 -212 0 -232 1 -345 28
-156 37 -235 65 -380 137 -160 79 -287 171 -420 304 -228 228 -375 498 -447
822 -19 85 -22 128 -22 323 0 248 11 324 75 513 182 546 657 966 1216 1077
146 29 142 28 358 25 156 -3 220 -8 293 -24z"/>
<path d="M2845 3882 c-19 -12 -225 -290 -551 -743 -287 -398 -526 -734 -533
-746 -17 -33 -13 -67 12 -104 35 -52 65 -58 315 -58 122 -1 222 -4 222 -7 0
-3 -40 -142 -90 -308 -113 -380 -160 -563 -153 -598 11 -57 84 -103 147 -91
54 11 204 200 668 843 414 574 478 666 484 697 7 39 -11 79 -49 107 -27 20
-43 21 -268 24 -131 2 -239 7 -239 11 0 5 47 200 105 434 58 234 105 434 105
444 0 32 -39 84 -75 99 -45 18 -64 18 -100 -4z m-255 -886 c-57 -232 -57 -247
1 -302 l30 -29 200 -5 200 -5 -171 -235 c-95 -129 -217 -299 -273 -378 -56
-78 -103 -139 -105 -134 -1 4 25 100 58 212 63 213 68 243 48 284 -25 56 -45
61 -271 66 l-209 5 268 373 c148 205 270 369 272 364 1 -4 -20 -102 -48 -216z"/>
<path d="M4598 3914 c-15 -8 -34 -27 -42 -42 -17 -35 -136 -501 -136 -535 0
-15 12 -41 28 -58 23 -25 38 -33 78 -36 43 -5 54 -2 81 21 26 22 35 42 54 121
13 52 26 95 29 95 9 0 55 -124 94 -253 137 -453 129 -951 -25 -1412 -50 -149
-176 -408 -263 -538 -343 -513 -875 -872 -1468 -991 -183 -37 -274 -46 -470
-46 -410 0 -751 87 -1120 288 -64 34 -108 52 -132 52 -46 0 -92 -40 -106 -91
-17 -62 6 -97 93 -147 546 -312 1207 -412 1817 -276 220 49 385 108 590 210
732 365 1242 1051 1380 1857 72 426 35 858 -110 1282 -71 206 -212 484 -257
504 -33 15 -83 13 -115 -5z"/>
</g>
</svg>
