<svg width="65" height="53" xmlns="http://www.w3.org/2000/svg">

 <g>
  <title>Layer 1</title>
  <path id="svg_1" d="m32.597,0c-14.098,0 -25.063,0.023 -25.081,0.053c-0.018,0.03 -0.175,0.072 -0.348,0.095c-0.167,0.021 -0.33,0.065 -0.485,0.13a0.805,0.805 0 0 1 -0.3,0.087a0.77,0.77 0 0 0 -0.292,0.086c-0.089,0.048 -0.408,0.202 -0.709,0.344a10.48,10.48 0 0 0 -1.976,1.249c-0.15,0.13 -0.434,0.387 -0.63,0.571c-0.262,0.255 -0.512,0.522 -0.747,0.802c-0.214,0.257 -0.54,0.693 -0.724,0.97c-0.202,0.31 -0.385,0.632 -0.55,0.963c-0.12,0.252 -0.253,0.54 -0.297,0.64c-0.059,0.135 -0.116,0.27 -0.173,0.405a2.626,2.626 0 0 0 -0.136,0.442c-0.022,0.12 -0.065,0.234 -0.095,0.253c-0.03,0.019 -0.054,8.276 -0.054,19.569c0,10.85 0.024,19.562 0.053,19.594c0.029,0.032 0.08,0.167 0.115,0.3c0.035,0.135 0.1,0.34 0.143,0.457c0.21,0.534 0.459,1.052 0.744,1.55c0.137,0.235 0.384,0.618 0.55,0.852c0.166,0.234 0.662,0.782 1.102,1.217c0.44,0.434 0.975,0.914 1.188,1.064c0.213,0.15 0.553,0.37 0.755,0.487c0.202,0.118 0.574,0.315 0.826,0.437a4.9,4.9 0 0 0 0.639,0.267c0.106,0.027 0.207,0.069 0.3,0.125a0.592,0.592 0 0 0 0.284,0.082c0.091,0 0.243,0.031 0.337,0.07c0.094,0.037 0.335,0.088 0.536,0.112c0.2,0.025 13.202,0.049 28.892,0.054c20.577,0.006 28.582,-0.01 28.72,-0.059l0.192,-0.067l0,-14.087l-0.16,-0.126l-0.161,-0.126l-24.864,0.015c-20.66,0.013 -24.87,0.002 -24.895,-0.065c-0.017,-0.045 -0.031,-5.51 -0.031,-12.143c0,-6.634 0.016,-12.105 0.036,-12.158l0.038,-0.096l13.239,0c10.215,0 13.255,-0.017 13.311,-0.073a0.294,0.294 0 0 0 0.073,-0.181c0,-0.06 0.039,-0.197 0.086,-0.307c0.046,-0.11 0.134,-0.323 0.193,-0.473c0.104,-0.239 0.221,-0.473 0.35,-0.7a9.77,9.77 0 0 1 0.564,-0.859c0.178,-0.239 0.508,-0.603 0.734,-0.81c0.226,-0.207 0.584,-0.5 0.795,-0.65a7.68,7.68 0 0 1 1.657,-0.863c0.184,-0.066 0.567,-0.175 0.851,-0.243a7.917,7.917 0 0 1 1.125,-0.161a9.165,9.165 0 0 1 1.195,0.02c0.322,0.033 0.746,0.105 0.942,0.16c0.196,0.056 0.493,0.144 0.66,0.197c0.168,0.052 0.52,0.201 0.784,0.331c0.263,0.13 0.618,0.33 0.79,0.443c0.171,0.114 0.495,0.367 0.72,0.561c0.223,0.195 0.545,0.513 0.714,0.708c0.17,0.195 0.42,0.517 0.555,0.717c0.136,0.2 0.35,0.588 0.476,0.862c0.126,0.275 0.26,0.582 0.297,0.682c0.037,0.1 0.13,0.429 0.208,0.73c0.121,0.474 0.14,0.697 0.14,1.672c0,0.892 -0.024,1.22 -0.113,1.581c-0.062,0.251 -0.183,0.648 -0.268,0.882a9.416,9.416 0 0 1 -0.353,0.82a7.7,7.7 0 0 1 -0.503,0.83c-0.221,0.3 -0.461,0.584 -0.721,0.85c-0.229,0.23 -0.543,0.522 -0.699,0.647a7.465,7.465 0 0 1 -1.52,0.899c-0.178,0.072 -0.42,0.169 -0.537,0.214a8.26,8.26 0 0 1 -0.753,0.213c-0.45,0.108 -0.717,0.13 -1.581,0.127c-0.906,-0.003 -1.116,-0.023 -1.618,-0.154a13.196,13.196 0 0 1 -0.852,-0.25a9.44,9.44 0 0 1 -0.754,-0.34a7.736,7.736 0 0 1 -0.859,-0.51a9.482,9.482 0 0 1 -0.725,-0.587a8.64,8.64 0 0 1 -0.71,-0.76c-0.272,-0.335 -0.419,-0.461 -0.588,-0.51c-0.158,-0.045 -3.442,-0.06 -10.916,-0.047c-9.424,0.016 -10.697,0.029 -10.748,0.11c-0.035,0.055 -0.058,2.574 -0.059,6.52l0,6.428l0.12,0.064c0.083,0.045 5.674,0.06 18.41,0.048l18.293,-0.016l0.517,-0.143c0.284,-0.079 0.542,-0.168 0.574,-0.198a0.242,0.242 0 0 1 0.143,-0.055a1,1 0 0 0 0.277,-0.085c0.105,-0.047 0.37,-0.17 0.587,-0.274c0.217,-0.104 0.543,-0.273 0.723,-0.375c0.18,-0.102 0.454,-0.28 0.608,-0.394l0.341,-0.254a10.936,10.936 0 0 0 1.803,-1.75a11.51,11.51 0 0 0 1.131,-1.763c0.134,-0.268 0.298,-0.637 0.364,-0.821l0.196,-0.548c0.043,-0.117 0.102,-0.377 0.132,-0.578c0.03,-0.2 0.096,-0.524 0.145,-0.719c0.078,-0.305 0.091,-1.51 0.09,-8.666c0,-7.054 -0.014,-8.355 -0.088,-8.6a4.467,4.467 0 0 1 -0.13,-0.669c-0.022,-0.209 -0.074,-0.449 -0.115,-0.532a1.66,1.66 0 0 1 -0.112,-0.35c-0.02,-0.108 -0.186,-0.506 -0.367,-0.882a11.068,11.068 0 0 0 -0.61,-1.103a4.707,4.707 0 0 1 -0.28,-0.447c0,-0.016 -0.114,-0.17 -0.252,-0.342c-0.308,-0.351 -0.63,-0.69 -0.965,-1.016c-0.393,-0.387 -0.87,-0.81 -1.063,-0.942a19.409,19.409 0 0 0 -0.448,-0.3a0.698,0.698 0 0 1 -0.13,-0.099a3.316,3.316 0 0 0 -0.39,-0.229a5.975,5.975 0 0 1 -0.426,-0.242a3.264,3.264 0 0 0 -0.431,-0.194c-0.2,-0.08 -0.419,-0.18 -0.485,-0.223a0.559,0.559 0 0 0 -0.261,-0.078a0.827,0.827 0 0 1 -0.312,-0.087a1.851,1.851 0 0 0 -0.485,-0.13c-0.173,-0.023 -0.33,-0.066 -0.347,-0.095c-0.019,-0.03 -10.983,-0.052 -25.081,-0.052l0,-0.002z" fill="#11840d"/>
 </g>
</svg>