<svg xmlns="http://www.w3.org/2000/svg" version="1.0" viewBox="0 0 5884.437 2072.907"><g stroke="#4f71ad" stroke-width=".224"><path fill="#002556" stroke-width=".022400000000000003" d="M4360.926.61c-54.9 5.2-96.6 19.6-139 47.8-67.4 44.9-101.8 103-112.7 190.5-1.6 12.5-1.7 69.4-2 779.5-.3 517.3-.1 773.5.6 789 2.4 53 10.8 88.9 29.7 126.6 18 36 44.4 64.9 82.6 90.2 35 23.2 72.4 37.9 113.6 44.6 38 6.2 86.9 5.3 123.2-2.4 55.4-11.6 106-38.4 144.2-76.1 18.3-18.1 30.5-35 42.2-58.5 14.3-28.7 22-55.8 27.3-96.4 1.6-12.1 1.7-55.8 2-628.3l.3-615.2h320.6c284.9 0 320.8.2 323.4 1.5l3 1.5.3 617.8c.2 581.2.4 618.4 2 629.2 9 59.5 26.1 100.5 57.1 136.7 26.1 30.6 68 59.2 110.1 75.2 31.9 12.1 64.2 18.1 102.7 18.8 34.9.8 62.2-2.1 90.8-9.6 71-18.5 134.5-64.1 166-119.2 18.5-32.3 28.7-66 34.2-113.4 1.1-8.9 1.3-161.9 1.3-794.5 0-749.7-.1-784.1-1.8-798-8.4-67.6-31.1-116.3-72.8-156.5-39.4-38-90.4-64.6-144.9-75.5-32-6.5 18.8-6-672.2-5.8-345.6 0-629.9.3-631.8.5zM255.726 9.01c-81.5 5.5-144.5 36.5-190.1 93.4-38.4 47.9-59.3 100.4-64.8 162.8-1.7 19.1-.6 59.4 2 77.2 8.2 54.2 28.8 101.5 62.6 143.6 47.5 58.8 110.2 89 195.5 93.9 10.5.6 86.7 1 189.8 1h172.2v601.7c0 366.5.4 610.6 1 624.3 1.5 34.2 5.1 58.3 12.5 84 16.7 57 48.1 99 100 133.5 41.3 27.5 86.3 43 138.7 47.6 16.8 1.5 58.3.6 73.8-1.6 54.6-7.6 101-26.8 143.8-59.4 59.2-45.1 89.5-106.8 95.2-193.6.7-10.8 1-215 1-626.2v-610.3l402.8-.3c369-.3 403.8-.5 416.2-2 54.7-6.8 96.3-22.3 133.6-49.9 12.3-9.1 36.6-32.9 46.8-45.8 33-41.7 53-87.8 61.1-140.8 2.9-19 4-46.3 2.7-66.9-2.9-44.4-11.6-78.7-29.2-114.8-20.3-41.5-52.1-79.9-86.5-104.2-39.6-27.9-86.3-43.2-144.5-47.3-17.5-1.2-1718.3-1.1-1736.2.1z"/><path fill="#4f71ad" stroke-width=".022400000000000003" d="M3030.926 8.51c-.8.1-6.2 1-12 1.9-20.7 3.3-47.5 12.4-68 23.2-27.9 14.6-58.8 38.8-81.6 64.1-7.1 7.9-392.2 469.9-401.4 481.6-1.5 1.9 6.6 1.9 507.5 1.3 328.2-.5 512.7-1 519.5-1.7 35.4-3.4 63-9.9 90.9-21.6 48.8-20.5 88.9-57.4 119.6-110 44.3-75.9 51.9-177.1 19.9-264.4-5.6-15.1-18.5-40.3-28.1-55-36.4-55.2-80.9-89.3-139.3-106.6-24.6-7.2-47.8-10.9-79.3-12.4-18-.9-443.7-1.3-447.7-.4z"/><path fill="#294b87" stroke-width=".022400000000000003" d="M2388.126 674.61c-26.6 31.9-299.9 360.4-457 549.1l-59.3 71.4 810.3-.6c514.5-.5 815-1.1 823.3-1.7 72.7-5.5 129.7-34 171.4-85.9 43-53.5 62.4-115.2 59-187.6-2.7-59.5-23.1-112.7-60.2-157.6-21.1-25.5-44.1-44.4-70.8-58-25.6-13.1-51.9-20.8-88.9-26-6.3-.9-69.8-1.3-241.4-1.7l-232.8-.6 55.3-66.6c30.5-36.6 56-67.3 56.8-68.2 1.3-1.6-21.1-1.7-367.3-1.7h-368.6z"/><path fill="#002556" stroke-width=".022400000000000003" d="M1718.926 1478.51c-57.5 69.1-108.6 131.3-113.7 138.2-23.1 31.7-39.8 65.7-47.9 97.8-5.2 20.9-6.8 33.4-6.8 54.9 0 19.8.9 28.9 5.1 48.9 15.1 72.7 56.6 136.8 118.9 183.7 42.1 31.7 86.7 50.7 135.4 57.9 13.4 2 20.8 2 839.5 2 559.5 0 830.5-.3 840-1 76-5.7 135.7-32.5 178.7-80.5 34.8-38.8 58.2-83.8 69.3-132.9 8.6-38.5 9.9-86.2 3.4-126-9.7-59.4-37.1-112.9-79.4-155.1-34.6-34.6-79.3-57.2-132.6-67-28.9-5.3 13.8-4.9-558.1-5.2-289.8-.2-526.8-.6-526.8-.8 0-.4 82.4-99.3 109.8-131.8l7.3-8.7h-737.6z"/></g></svg>