<svg xmlns="http://www.w3.org/2000/svg" version="1.0" viewBox="0 0 14639.442 2146.008"><g stroke="#4f71ad" stroke-width=".224"><path fill="#4f71ad" stroke-width=".022400000000000003" d="m8072.926 29.711.1 29.8 50.2 36.2 50.1 36.3h145.2l50.2-36.3 50.1-36.2.1-29.8V.011h-108v11.7l-.1 11.8-20.1 17.7-20.1 17.8h-49.3l-20.1-17.8-20.2-17.7-.1-11.8V.011h-108z"/><path fill="#002556" stroke-width=".022400000000000003" d="M4360.926 73.711c-54.9 5.2-96.6 19.6-139 47.8-67.4 44.9-101.8 103-112.7 190.5-1.6 12.5-1.7 69.4-2 779.5-.3 517.3-.1 773.5.6 789 2.4 53 10.8 88.9 29.7 126.6 18 36 44.4 64.9 82.6 90.2 35 23.2 72.4 37.9 113.6 44.6 38 6.2 86.9 5.3 123.2-2.4 55.4-11.6 106-38.4 144.2-76.1 18.3-18.1 30.5-35 42.2-58.5 14.3-28.7 22-55.8 27.3-96.4 1.6-12.1 1.7-55.8 2-628.3l.3-615.2h320.6c284.9 0 320.8.2 323.4 1.5l3 1.5.3 617.8c.2 581.2.4 618.4 2 629.2 9 59.5 26.1 100.5 57.1 136.7 26.1 30.6 68 59.2 110.1 75.2 31.9 12.1 64.2 18.1 102.7 18.8 34.9.8 62.2-2.1 90.8-9.6 71-18.5 134.5-64.1 166-119.2 18.5-32.3 28.7-66 34.2-113.4 1.1-8.9 1.3-161.9 1.3-794.5 0-749.7-.1-784.1-1.8-798-8.4-67.6-31.1-116.3-72.8-156.5-39.4-38-90.4-64.6-144.9-75.5-32-6.5 18.8-6-672.2-5.8-345.6 0-629.9.3-631.8.5zM255.726 82.111c-81.5 5.5-144.5 36.5-190.1 93.4-38.4 47.9-59.3 100.4-64.8 162.8-1.7 19.1-.6 59.4 2 77.2 8.2 54.2 28.8 101.5 62.6 143.6 47.5 58.8 110.2 89 195.5 93.9 10.5.6 86.7 1 189.8 1h172.2v601.7c0 366.5.4 610.6 1 624.3 1.5 34.2 5.1 58.3 12.5 84 16.7 57 48.1 99 100 133.5 41.3 27.5 86.3 43 138.7 47.6 16.8 1.5 58.3.6 73.8-1.6 54.6-7.6 101-26.8 143.8-59.4 59.2-45.1 89.5-106.8 95.2-193.6.7-10.8 1-215 1-626.2v-610.3l402.8-.3c369-.3 403.8-.5 416.2-2 54.7-6.8 96.3-22.3 133.6-49.9 12.3-9.1 36.6-32.9 46.8-45.8 33-41.7 53-87.8 61.1-140.8 2.9-19 4-46.3 2.7-66.9-2.9-44.4-11.6-78.7-29.2-114.8-20.3-41.5-52.1-79.9-86.5-104.2-39.6-27.9-86.3-43.2-144.5-47.3-17.5-1.2-1718.3-1.1-1736.2.1z"/><path fill="#4f71ad" stroke-width=".022400000000000003" d="M3030.926 81.611c-.8.1-6.2 1-12 1.9-20.7 3.3-47.5 12.4-68 23.2-27.9 14.6-58.8 38.8-81.6 64.1-7.1 7.9-392.2 469.9-401.4 481.6-1.5 1.9 6.6 1.9 507.5 1.3 328.2-.5 512.7-1 519.5-1.7 35.4-3.4 63-9.9 90.9-21.6 48.8-20.5 88.9-57.4 119.6-110 44.3-75.9 51.9-177.1 19.9-264.4-5.6-15.1-18.5-40.3-28.1-55-36.4-55.2-80.9-89.3-139.3-106.6-24.6-7.2-47.8-10.9-79.3-12.4-18-.9-443.7-1.3-447.7-.4zM6249.926 212.011v54l112.3.2 112.2.3.3 162.7.2 162.8h146v-326h226v-108h-597zM6963.926 375.011v217h222.9c147.2 0 226.3-.4 233-1 28.2-2.9 52.9-13.6 71.3-30.9 14.8-13.9 23.1-26.5 28.2-42.7 4.1-13.2 4.8-22.3 4.4-57l-.3-31.9-3.1-8.5c-1.6-4.7-5.2-12.3-8-16.9-5-8.5-17.6-22.7-25.7-29.1l-4.4-3.5 9.3-8.8c10.3-9.7 16.5-18.3 22.3-30.9 6.2-13.2 6.6-16.5 6.5-50.3 0-31.8-1-41.2-5.5-54.8-9.6-28.9-32.3-50.4-63.9-60.5-22.8-7.3 1.6-6.6-255.7-6.9l-231.3-.3zm412-81v28h-279v-56h279zm0 156.5v32.5h-279v-31.8c0-17.5.3-32.2.7-32.5.3-.4 63.1-.7 139.5-.7h138.8zM7647.926 375.011v217h146v-434h-146zM7932.926 375.011v217h53.3l53.2-.1 186-136.5 186-136.6.3 136.6.2 136.6h135v-434H8440.226l-185.9 135.9-185.9 136-.3-136-.2-135.9h-135z"/><path fill="#294b87" stroke-width=".022400000000000003" d="M2388.126 747.711c-26.6 31.9-299.9 360.4-457 549.1l-59.3 71.4 810.3-.6c514.5-.5 815-1.1 823.3-1.7 72.7-5.5 129.7-34 171.4-85.9 43-53.5 62.4-115.2 59-187.6-2.7-59.5-23.1-112.7-60.2-157.6-21.1-25.5-44.1-44.4-70.8-58-25.6-13.1-51.9-20.8-88.9-26-6.3-.9-69.8-1.3-241.4-1.7l-232.8-.6 55.3-66.6c30.5-36.6 56-67.3 56.8-68.2 1.3-1.6-21.1-1.7-367.3-1.7h-368.6zM6247.926 1111.011v217h528v-109h-390v-64h229v-97h-229v-56h386v-108h-524zM6918.926 1111.011v217h147v-173h312v173h147v-434h-147v164h-312v-164h-147zM7667.926 1111.011v217h528v-109h-390v-64h229v-97h-229v-56h386v-108h-524zM8339.926 948.011v54l203.8.2 203.7.3.3 35.2.2 35.3h-408v255h147l.2-75.3.3-75.2 148-.5c146.6-.6 148.1-.6 156.5-2.7 33.1-8.3 55-20.2 74.5-40.4 13.9-14.6 21.3-28.4 25.8-48.4 1.7-7.8 2-13.7 2.4-43 .5-38.1-.3-46.9-5.6-63.6-11.4-35.5-41.9-66.8-76.3-78.3-19.3-6.5 1.6-6-247-6.3l-225.8-.3zM9004.926 1111.011v217h147v-326h338v-108h-485zM9596.926 1111.011v217h606v-434h-606zm468-.5v108.5h-330v-217h330z"/><path fill="#002556" stroke-width=".022400000000000003" d="M1718.926 1551.611c-57.5 69.1-108.6 131.3-113.7 138.2-23.1 31.7-39.8 65.7-47.9 97.8-5.2 20.9-6.8 33.4-6.8 54.9 0 19.8.9 28.9 5.1 48.9 15.1 72.7 56.6 136.8 118.9 183.7 42.1 31.7 86.7 50.7 135.4 57.9 13.4 2 20.8 2 839.5 2 559.5 0 830.5-.3 840-1 76-5.7 135.7-32.5 178.7-80.5 34.8-38.8 58.2-83.8 69.3-132.9 8.6-38.5 9.9-86.2 3.4-126-9.7-59.4-37.1-112.9-79.4-155.1-34.6-34.6-79.3-57.2-132.6-67-28.9-5.3 13.8-4.9-558.1-5.2-289.8-.2-526.8-.6-526.8-.8 0-.4 82.4-99.3 109.8-131.8l7.3-8.7h-737.6zM6249.926 1848.011v217h147v-325h295v325h148v-434h-590zM6982.926 1848.011v217h606v-434h-606zm468 0v108h-330v-216h330zM7731.926 1848.011v217h539v-175h-138v66h-263v-216h262l.2 21.7.3 21.8 69.3.3 69.2.2v-153h-539zM8346.026 1631.711c0 .5 15.7 24.9 34.8 54.3l34.7 53.5 111.7.3 111.7.2v325h147v-325l118.3-.2 118.2-.3.3-54.3.2-54.2h-338.5c-186.2 0-338.5.3-338.4.7zM9199.726 1699.911c-24.7 37.8-44.8 69.1-44.8 69.5 0 .3 34.5.6 76.8.6h76.7l20.5 32.6c11.3 17.9 20.6 33 20.8 33.5.2.5-47.2 1-119.4 1.1l-119.7.3-73.9 113.5-73.9 113.5 73.8.3c40.6.1 74.3 0 74.8-.2.6-.2 18.8-29.2 40.5-64.5l39.5-64.1h216l40.6 64.2 40.5 64.3 80.3.3c70.5.2 80.1 0 79.4-1.3-.5-.8-64.1-98.4-141.3-217l-140.5-215.5-61 .1h-61zM9644.926 1761.511v130.5h406v173h146v-434h-147l-.2 81.7-.3 81.8-128.2.3-128.3.2v-164h-148zM10530.726 1699.911c-24.7 37.8-44.8 69.1-44.8 69.5 0 .3 34.5.6 76.8.6h76.7l20.5 32.6c11.3 17.9 20.6 33 20.8 33.5.2.5-47.2 1-119.4 1.1l-119.7.3-73.9 113.5-73.9 113.5 73.8.3c40.6.1 74.3 0 74.8-.2.6-.2 18.8-29.2 40.5-64.5l39.5-64.1h216l40.6 64.2 40.5 64.3 80.3.3c70.5.2 80.1 0 79.4-1.3-.5-.8-64.1-98.4-141.3-217l-140.5-215.5-61 .1h-61zM11167.926 1649.711c0 38.6-2.6 91.5-6.1 126.2-8.7 86.2-28 149.9-51.9 171.4-8.9 8-9.6 8.2-34.7 8.5l-22.3.3v109.1l36.3-.5c58.3-.8 80.6-4.8 104.1-18.6 24.9-14.6 43.5-36 58.5-67.1 25.4-52.9 35.9-111.1 38.7-213.8l.7-25.2h240.7v325h136v-434h-500zM11810.926 1848.011v217l230.8-.3c256.1-.3 233.2.3 254.4-6.7 31.5-10.5 57.6-33.7 67.9-60.5 6.8-17.5 7.3-22.4 7.3-68 .1-34.8-.2-42.4-1.7-50.5-3.1-17.1-8.4-30-16.9-41.5-14.9-20.1-34.6-32.1-65.7-39.8-8.6-2.1-9.2-2.1-168.8-2.4l-160.3-.3v-164h-147zm411 76v32h-264v-64h264zM12485.926 1848.011v217h147v-173h312v173h147v-434h-147v164h-312v-164h-147zM13235.926 1848.011v217H13342.626l185.9-136.4 185.9-136.4.3 136.4.2 136.4h136v-434h-54.2l-54.3.1-185 135.4c-101.7 74.5-185.3 135.4-185.7 135.5-.5 0-.8-61-.8-135.5v-135.5h-135zM13992.926 1848.011v217h147v-173h67.5l112 86.5 112 86.4 104.5.1c61.5 0 104-.4 103.5-.9-.6-.5-67.1-51.4-148-113.1-80.8-61.7-147.8-113-148.7-113.9-1.5-1.5 7.6-8.9 127.8-103.6l129.4-102-95.5-.3-95.4-.2-101.3 82-101.3 82h-66.5v-164h-147z"/></g></svg>