<svg xmlns="http://www.w3.org/2000/svg" xml:space="preserve" width="139" height="53"><path fill="#11840d" d="M32.597 0C18.499 0 7.534.023 7.516.053c-.018.03-.175.072-.348.095a1.85 1.85 0 0 0-.485.13.81.81 0 0 1-.3.087.764.764 0 0 0-.292.086c-.089.048-.408.202-.709.344a11.28 11.28 0 0 0-1.125.635c-.318.208-.7.484-.851.614-.15.13-.434.387-.63.571a10.93 10.93 0 0 0-.747.802c-.214.257-.54.693-.724.97a9.6 9.6 0 0 0-.55.963c-.12.252-.253.54-.297.64a35.63 35.63 0 0 0-.173.405 2.6 2.6 0 0 0-.136.442c-.022.12-.065.234-.095.253C.024 7.109 0 15.366 0 26.659c0 10.85.024 19.562.053 19.594.029.032.08.167.115.3.035.135.1.34.143.457a11.81 11.81 0 0 0 .744 1.55c.137.235.384.618.55.852.166.234.662.782 1.102 1.217.44.434.975.914 1.188 1.064.213.15.553.37.755.487.202.118.574.315.826.437s.54.243.639.267a1.1 1.1 0 0 1 .3.125.591.591 0 0 0 .284.082c.091 0 .243.031.337.07.094.037.335.088.536.112.2.025 13.202.049 28.892.054 20.577.006 28.582-.01 28.72-.059l.192-.067V39.114l-.16-.126-.161-.126-24.864.015c-20.66.013-24.87.002-24.895-.065-.017-.045-.031-5.51-.031-12.143 0-6.634.016-12.105.036-12.158l.038-.096h13.239c10.215 0 13.255-.017 13.311-.073a.294.294 0 0 0 .073-.181c0-.06.039-.197.086-.307.046-.11.134-.323.193-.473a7.3 7.3 0 0 1 .35-.7 9.86 9.86 0 0 1 .564-.859c.178-.239.508-.603.734-.81.226-.207.584-.5.795-.65a7.698 7.698 0 0 1 1.657-.863c.184-.066.567-.175.851-.243a7.91 7.91 0 0 1 1.125-.161 9.132 9.132 0 0 1 1.195.02c.322.033.746.105.942.16.196.056.493.144.66.197.168.052.52.201.784.331.263.13.618.33.79.443.171.114.495.367.72.561.223.195.545.513.714.708.17.195.42.517.555.717.136.2.35.588.476.862.126.275.26.582.297.682.037.1.13.429.208.73.121.474.14.697.14 1.672 0 .892-.024 1.22-.113 1.581-.062.251-.183.648-.268.882a9.356 9.356 0 0 1-.353.82 7.828 7.828 0 0 1-.503.83 8.124 8.124 0 0 1-.721.85c-.229.23-.543.522-.699.647-.155.126-.489.35-.74.498a7.382 7.382 0 0 1-.78.401c-.178.072-.42.169-.537.214a8.47 8.47 0 0 1-.753.213c-.45.108-.717.13-1.581.127-.906-.003-1.116-.023-1.618-.154a12.948 12.948 0 0 1-.852-.25 9.401 9.401 0 0 1-.754-.34 7.755 7.755 0 0 1-.859-.51 9.369 9.369 0 0 1-.725-.587 8.749 8.749 0 0 1-.71-.76c-.272-.335-.419-.461-.588-.51-.158-.045-3.442-.06-10.916-.047-9.424.016-10.697.029-10.748.11-.035.055-.058 2.574-.059 6.52v6.428l.12.064c.083.045 5.674.06 18.41.048l18.293-.016.517-.143c.284-.079.542-.168.574-.198a.24.24 0 0 1 .143-.055.986.986 0 0 0 .277-.085c.105-.047.37-.17.587-.274.217-.104.543-.273.723-.375.18-.102.454-.28.608-.394l.341-.254a10.954 10.954 0 0 0 1.803-1.75 11.57 11.57 0 0 0 1.131-1.763c.134-.268.298-.637.364-.821l.196-.548c.043-.117.102-.377.132-.578.03-.2.096-.524.145-.719.078-.305.091-1.51.09-8.666 0-7.054-.014-8.355-.088-8.6a4.5 4.5 0 0 1-.13-.669c-.022-.209-.074-.449-.115-.532a1.667 1.667 0 0 1-.112-.35c-.02-.108-.186-.506-.367-.882a11.08 11.08 0 0 0-.61-1.103 4.705 4.705 0 0 1-.28-.447c0-.016-.114-.17-.252-.342a17.704 17.704 0 0 0-.965-1.016c-.393-.387-.87-.81-1.063-.942a18.519 18.519 0 0 0-.448-.3.675.675 0 0 1-.13-.099 3.237 3.237 0 0 0-.39-.229 5.825 5.825 0 0 1-.426-.242 3.301 3.301 0 0 0-.431-.194c-.2-.08-.419-.18-.485-.223a.564.564 0 0 0-.261-.078.832.832 0 0 1-.312-.087 1.85 1.85 0 0 0-.485-.13c-.173-.023-.33-.066-.347-.095-.019-.03-10.983-.052-25.081-.052V0zm53.536 1.048a9.675 9.675 0 0 0-.81.003c-.688.025-1.016.068-1.49.194a8.3 8.3 0 0 0-1.216.454c-.335.161-.8.43-1.035.597a9.902 9.902 0 0 0-.778.624 7.499 7.499 0 0 0-.744.844 8.751 8.751 0 0 0-.634.985c-.133.254-.324.71-.426 1.015a8.248 8.248 0 0 0-.276 1.151c-.05.328-.09.801-.09 1.052s.04.717.088 1.034c.048.318.159.797.246 1.064.088.268.252.679.366.913.113.234.315.59.448.79.133.201.4.55.596.774.194.225.562.58.818.79.255.211.676.504.935.653.26.148.72.363 1.025.478.305.114.8.258 1.102.321.437.09.74.11 1.49.091.767-.018 1.056-.052 1.542-.179.329-.086.876-.29 1.216-.453.34-.163.837-.46 1.105-.661.267-.2.661-.551.875-.78.214-.23.545-.656.736-.946a8.08 8.08 0 0 0 .572-1.067c.124-.295.278-.743.343-.995a10.1 10.1 0 0 0 .178-.884c.033-.234.06-.658.06-.943a8.959 8.959 0 0 0-.088-1.113 8.16 8.16 0 0 0-.271-1.138 9.054 9.054 0 0 0-.405-.985 8.715 8.715 0 0 0-.47-.805 8.42 8.42 0 0 0-.724-.862 7.52 7.52 0 0 0-.93-.811 8.883 8.883 0 0 0-.925-.546 7.7 7.7 0 0 0-.867-.359 9.442 9.442 0 0 0-.943-.227 4.513 4.513 0 0 0-.619-.072v-.001zm8.574.168a.97.97 0 0 0-.426.12.917.917 0 0 0-.289.3l-.094.183v12.235l.094.183a.91.91 0 0 0 .29.3.99.99 0 0 0 .437.119.99.99 0 0 0 .437-.118.916.916 0 0 0 .273-.258c.064-.112.087-1.164.11-5.123l.031-4.983 1.678 2.064c.923 1.135 1.721 2.099 1.773 2.142.053.043.185.104.295.136a.81.81 0 0 0 .43-.004c.164-.045.322-.168.561-.44.183-.209.977-1.182 1.766-2.163l1.433-1.784V9.09c0 4.363.012 4.986.095 5.146a.92.92 0 0 0 .289.301.99.99 0 0 0 .438.12.99.99 0 0 0 .438-.12.917.917 0 0 0 .289-.3l.094-.183V1.819l-.094-.183a.917.917 0 0 0-.29-.3.97.97 0 0 0-.425-.12c-.127 0-.31.04-.404.09-.095.049-1.083 1.192-2.195 2.539a315.85 315.85 0 0 1-2.124 2.558l-.103.11L97.4 3.954c-1.162-1.407-2.192-2.598-2.288-2.647a1.047 1.047 0 0 0-.405-.09v-.001zm-23.523 0a.992.992 0 0 0-.438.12.917.917 0 0 0-.29.3l-.093.183v12.235l.094.183c.051.1.181.235.289.3a.969.969 0 0 0 .425.12c.127 0 .314-.043.414-.095a.917.917 0 0 0 .3-.288l.12-.195v-2.068c0-1.137.018-2.173.04-2.303.027-.164.18-.422.504-.848.256-.336.491-.618.523-.628.032-.01.936 1.37 2.01 3.067 1.394 2.203 2.01 3.123 2.153 3.221a.852.852 0 0 0 .41.137c.115 0 .303-.044.416-.098a.92.92 0 0 0 .328-.296.966.966 0 0 0 .123-.44v-.242l-1.955-3.065a8167.244 8167.244 0 0 0-2.129-3.336c-.095-.149-.173-.323-.173-.386 0-.064.061-.202.136-.308.075-.105.825-1.075 1.665-2.154.884-1.135 1.544-2.037 1.564-2.138a.938.938 0 0 0-.021-.372.948.948 0 0 0-.164-.316 1.157 1.157 0 0 0-.273-.204 1.002 1.002 0 0 0-.386-.085.885.885 0 0 0-.383.096c-.089.053-1.106 1.314-2.26 2.802l-2.098 2.706-.03-2.544c-.024-1.943-.05-2.576-.11-2.683a.918.918 0 0 0-.275-.259.99.99 0 0 0-.436-.118v-.001zm14.347 1.39c.337-.001.791.03 1.008.07.218.04.607.153.864.253.258.099.674.314.925.478.251.164.622.466.824.67.202.206.504.582.672.838.168.255.39.683.493.951.103.268.23.68.283.914.062.276.094.707.092 1.217-.003.64-.033.902-.156 1.373-.084.32-.255.785-.38 1.034a7.496 7.496 0 0 1-.484.817c-.143.2-.42.517-.617.702a6.564 6.564 0 0 1-.646.536 6.028 6.028 0 0 1-1.535.712c-.219.06-.682.108-1.156.12-.435.012-.911-.003-1.06-.034a7.91 7.91 0 0 1-.669-.189c-.22-.072-.536-.2-.703-.283a7.119 7.119 0 0 1-.66-.393 6.513 6.513 0 0 1-.736-.615 6.07 6.07 0 0 1-.687-.843 6.924 6.924 0 0 1-.495-.922 7.103 7.103 0 0 1-.29-.87c-.065-.27-.1-.68-.101-1.175-.001-.512.031-.896.1-1.177.057-.23.187-.626.289-.881a6.29 6.29 0 0 1 .511-.951c.18-.268.486-.643.68-.833.196-.19.558-.483.806-.653a5.49 5.49 0 0 1 .928-.492c.263-.102.66-.227.882-.278a5.67 5.67 0 0 1 1.018-.096zm20.086 14.378a.769.769 0 0 0-.23.039c-.158.047-.32.174-.513.4-.155.18-.398.385-.54.454a1.41 1.41 0 0 1-.605.125 1.75 1.75 0 0 1-.544-.083c-.107-.045-.374-.261-.592-.48-.288-.291-.455-.41-.613-.44a.77.77 0 0 0-.439.051.855.855 0 0 0-.344.294.932.932 0 0 0-.123.405c0 .112.044.296.098.41.054.114.257.354.451.534.194.18.484.39.645.468.16.077.429.174.598.215.168.042.554.077.856.08.315.003.702-.034.907-.088.197-.051.49-.165.65-.252a2.993 2.993 0 0 0 .965-.886.977.977 0 0 0 .12-.482c0-.215-.036-.328-.153-.467a.98.98 0 0 0-.373-.255.702.702 0 0 0-.221-.042zm-6.155 3.207a.99.99 0 0 0-.438.119.917.917 0 0 0-.288.3l-.094.183v12.235l.094.183c.051.1.181.235.288.3a.989.989 0 0 0 .438.119.97.97 0 0 0 .428-.112c.123-.076 1.168-1.554 3.191-4.515l3.313-4.85.305-.446.03 4.703c.025 3.729.048 4.733.111 4.844a.918.918 0 0 0 .274.258.99.99 0 0 0 .437.118.99.99 0 0 0 .438-.118.917.917 0 0 0 .289-.301l.094-.183v-12.24l-.101-.172a1.027 1.027 0 0 0-.328-.298 1.066 1.066 0 0 0-.431-.127.892.892 0 0 0-.391.114c-.129.078-1.227 1.637-3.497 4.964l-3.31 4.85-.03-4.706c-.025-3.73-.048-4.734-.11-4.845a.918.918 0 0 0-.275-.259.992.992 0 0 0-.437-.118zm16.791 0a.99.99 0 0 0-.444.119.915.915 0 0 0-.288.3c-.051.1-1.137 2.666-2.412 5.704-1.274 3.037-2.343 5.554-2.374 5.592-.03.038-.236.08-.457.094l-.401.026-.206.224c-.18.196-.205.263-.205.554 0 .27.03.366.162.524.09.106.22.215.29.244.069.028 2.912.053 6.317.055l6.191.004.182-.094a.917.917 0 0 0 .3-.29.991.991 0 0 0 .12-.437.989.989 0 0 0-.119-.437.899.899 0 0 0-.258-.272c-.077-.043-.304-.093-.505-.11l-.365-.032-.142-.299a587.952 587.952 0 0 1-2.241-5.29 3770.425 3770.425 0 0 0-2.294-5.449c-.14-.33-.25-.493-.397-.593a.83.83 0 0 0-.454-.137zm-46.042 0-.195.119a.917.917 0 0 0-.289.3.995.995 0 0 0-.094.385c0 .11.05.294.111.408a.918.918 0 0 0 .318.319l.208.11h2.829v5.599c0 4.935.011 5.62.094 5.78a.91.91 0 0 0 .29.3.99.99 0 0 0 .437.12.988.988 0 0 0 .445-.124.838.838 0 0 0 .289-.332c.074-.177.087-1.069.087-5.776v-5.566h2.828l.198-.122c.11-.066.253-.21.32-.319a.873.873 0 0 0 .12-.371c0-.095-.045-.27-.1-.387a.902.902 0 0 0-.29-.328l-.187-.114h-3.71l-3.709-.001zm19.643 0-.202.123a.838.838 0 0 0-.288.332c-.075.178-.088 1.133-.088 6.265s.013 6.087.088 6.264a.843.843 0 0 0 .288.334l.201.123 3.487-.015 3.486-.016.208-.228c.177-.193.208-.27.208-.517 0-.159-.036-.357-.077-.44a.981.981 0 0 0-.282-.288l-.206-.14h-5.759v-4.439h4.76l.198-.122a.82.82 0 0 0 .3-.377.882.882 0 0 0 .066-.45.968.968 0 0 0-.162-.353 1.1 1.1 0 0 0-.3-.25c-.144-.075-.567-.09-2.518-.09h-2.344v-4.074H96.3l.194-.12c.107-.064.238-.185.292-.266a1.13 1.13 0 0 0 .132-.36.748.748 0 0 0-.074-.44.935.935 0 0 0-.296-.341l-.187-.114h-3.254l-3.253-.001zm-9.648.012c-.339.01-.453.035-.537.078a.934.934 0 0 0-.308.293l-.119.195v12.26l.094.182c.052.1.182.235.289.3a.97.97 0 0 0 .426.12c.127 0 .313-.042.413-.094a.917.917 0 0 0 .3-.289l.12-.195v-4.348h1.485c1.041 0 1.617-.026 1.93-.087.246-.048.608-.144.805-.213.198-.069.526-.22.73-.335.204-.115.495-.314.647-.441.152-.128.378-.344.501-.481.124-.138.322-.411.44-.609.12-.197.29-.577.378-.844.143-.43.162-.584.163-1.308l.001-.821-.17-.486a5.431 5.431 0 0 0-.391-.851 4.583 4.583 0 0 0-.595-.73 4.756 4.756 0 0 0-.715-.57 6.093 6.093 0 0 0-.696-.347 9.082 9.082 0 0 0-.716-.248c-.306-.09-.706-.109-2.591-.128a57.337 57.337 0 0 0-1.884-.003zm.677 1.63h1.384c.761 0 1.557.029 1.768.063.212.035.568.135.79.224.311.123.501.255.808.56.294.294.434.49.528.74.07.189.145.504.168.7.022.197.01.523-.027.723a3.437 3.437 0 0 1-.249.736c-.105.215-.31.492-.488.658a3.231 3.231 0 0 1-.697.47c-.216.1-.605.22-.865.267-.305.055-.945.086-1.797.087l-1.323.002v-5.23zm35.37 1.11c.008.008.828 1.999 1.821 4.424a494 494 0 0 1 1.837 4.515l.03.107h-3.687c-2.027 0-3.686-.02-3.686-.046 0-.025.826-2.063 1.835-4.53s1.842-4.478 1.85-4.47zm-45.07 16.283a.992.992 0 0 0-.437.119.917.917 0 0 0-.29.3l-.093.183v12.235l.094.183c.051.1.181.235.289.3a.969.969 0 0 0 .425.12c.127 0 .314-.043.414-.095a.917.917 0 0 0 .3-.288l.12-.195v-5.504h6.446v5.504l.12.195c.065.107.2.237.3.288.1.052.286.095.413.094a.97.97 0 0 0 .426-.118.917.917 0 0 0 .289-.301l.094-.183V39.828l-.094-.182a.917.917 0 0 0-.29-.301.99.99 0 0 0-.437-.119.992.992 0 0 0-.438.119.917.917 0 0 0-.289.3c-.08.157-.094.55-.094 2.74v2.557h-6.446v-2.557c0-2.19-.014-2.583-.095-2.74a.917.917 0 0 0-.289-.3.99.99 0 0 0-.437-.119h-.001zm34.002 0a.991.991 0 0 0-.444.119.915.915 0 0 0-.288.3c-.052.1-1.137 2.666-2.412 5.704-1.274 3.037-2.343 5.554-2.374 5.592-.03.038-.236.08-.457.095l-.402.025-.205.224c-.18.196-.205.263-.205.554 0 .27.03.366.162.524.09.106.22.216.29.244.069.028 2.912.053 6.317.055l6.19.004.183-.095a.917.917 0 0 0 .3-.289.99.99 0 0 0 .12-.437.991.991 0 0 0-.119-.437.901.901 0 0 0-.258-.273c-.077-.043-.304-.092-.505-.11l-.365-.032-.142-.298a592.555 592.555 0 0 1-2.241-5.29 3900.303 3900.303 0 0 0-2.294-5.45c-.14-.33-.25-.493-.397-.592a.83.83 0 0 0-.454-.137zm9.24 0a.947.947 0 0 0-.356.068 1.539 1.539 0 0 0-.27.194.843.843 0 0 0-.197.345.838.838 0 0 0-.007.403c.029.1.78 1.119 1.67 2.264.89 1.145 1.636 2.148 1.656 2.228.02.08.016.183-.01.226-.026.044-.942 1.491-2.036 3.216s-2.036 3.228-2.093 3.34a.723.723 0 0 0-.074.443c.02.148.099.31.205.422.094.1.226.205.293.233.067.028.218.052.335.054a.874.874 0 0 0 .397-.11c.13-.078.722-.952 2.007-2.963l1.823-2.852.018-1.833.017-1.833-1.416-1.826c-.779-1.004-1.49-1.87-1.578-1.922a.885.885 0 0 0-.384-.097zm11.187 0a.669.669 0 0 0-.417.126c-.087.069-.775.92-1.528 1.89l-1.369 1.766v3.74l1.83 2.869c1.23 1.926 1.883 2.897 1.992 2.956.089.048.271.089.405.09a.847.847 0 0 0 .417-.113c.096-.063.225-.193.288-.288a.881.881 0 0 0 .116-.42v-.246l-2.034-3.203c-1.12-1.761-2.08-3.29-2.135-3.396-.075-.144-.085-.227-.039-.327.034-.074.788-1.07 1.676-2.212 1.152-1.482 1.625-2.136 1.654-2.286a.668.668 0 0 0-.074-.441 1.107 1.107 0 0 0-.32-.368.845.845 0 0 0-.462-.137zm12.064 0a.898.898 0 0 0-.393.115c-.131.08-1.208 1.608-3.497 4.964l-3.308 4.85-.03-4.707c-.025-3.73-.047-4.734-.11-4.845a.918.918 0 0 0-.275-.259.99.99 0 0 0-.437-.117.988.988 0 0 0-.437.118.917.917 0 0 0-.29.3l-.093.183v12.236l.094.182c.051.1.181.235.289.3a.99.99 0 0 0 .437.12.97.97 0 0 0 .428-.113c.123-.075 1.17-1.558 3.19-4.515l3.314-4.85.305-.446.031 4.704c.024 3.728.047 4.732.11 4.843a.918.918 0 0 0 .274.258.988.988 0 0 0 .437.118.99.99 0 0 0 .438-.118.917.917 0 0 0 .289-.301l.094-.182V39.823l-.101-.172a1.026 1.026 0 0 0-.328-.298 1.066 1.066 0 0 0-.431-.127zm-55.303 0-.2.123a.838.838 0 0 0-.29.332c-.074.178-.088 1.133-.088 6.265s.014 6.087.088 6.265a.842.842 0 0 0 .29.333l.2.123 3.487-.015 3.486-.016.208-.227c.177-.193.208-.272.207-.518 0-.159-.035-.357-.077-.44a.981.981 0 0 0-.281-.288l-.206-.139h-5.76v-4.44h4.76l.2-.122a.82.82 0 0 0 .3-.377.88.88 0 0 0 .065-.449.974.974 0 0 0-.162-.354 1.098 1.098 0 0 0-.3-.25c-.144-.075-.567-.09-2.518-.09h-2.344v-4.074h5.382l.194-.12c.107-.064.238-.184.292-.266a1.12 1.12 0 0 0 .131-.36.748.748 0 0 0-.074-.44.935.935 0 0 0-.295-.341l-.187-.114h-3.254l-3.254-.001zm9.753.012c-.34.01-.454.035-.537.078a.934.934 0 0 0-.309.293l-.118.195v12.26l.093.182a.91.91 0 0 0 .29.3.969.969 0 0 0 .426.12c.127 0 .312-.043.412-.095a.917.917 0 0 0 .301-.288l.12-.195V47.74h1.484c1.042 0 1.618-.026 1.93-.088a7.09 7.09 0 0 0 .806-.212c.197-.069.526-.22.73-.335.204-.115.495-.314.647-.441.151-.127.377-.344.5-.481a4.76 4.76 0 0 0 .441-.608 5.06 5.06 0 0 0 .377-.845c.143-.43.163-.584.164-1.308v-.82l-.169-.487a5.432 5.432 0 0 0-.391-.851 4.584 4.584 0 0 0-.595-.73 4.757 4.757 0 0 0-.715-.57 6.094 6.094 0 0 0-.697-.347 9.122 9.122 0 0 0-.716-.248c-.305-.09-.705-.11-2.59-.128a54.94 54.94 0 0 0-1.884-.002v-.001zm.677 1.63h1.384c.761 0 1.556.03 1.768.063.211.035.567.135.79.224.311.123.5.255.807.56.295.294.435.49.528.74.07.188.146.504.168.7.022.197.01.522-.026.723-.037.2-.15.532-.25.736-.105.215-.31.492-.487.658a3.229 3.229 0 0 1-.698.47c-.215.1-.604.22-.865.267-.304.054-.945.086-1.796.087l-1.323.002v-5.23zm12.381 1.11c.008.008.828 2 1.822 4.424.993 2.425 1.82 4.457 1.836 4.515l.03.107h-3.686c-2.028 0-3.686-.02-3.686-.046 0-.025.825-2.063 1.834-4.53 1.01-2.467 1.842-4.478 1.85-4.47z"/><path fill="#efbf0f" d="M120.034 36.877a.91.91 0 0 0-.398.118.918.918 0 0 0-.274.258c-.06.106-.087.697-.11 2.432l-.03 2.292-.259.354a43.08 43.08 0 0 0-.412.571l-.153.218.017 1.289.016 1.289.395-.52.396-.52.03 2.57c.023 1.967.05 2.604.11 2.711a.918.918 0 0 0 .274.259c.107.065.29.118.408.118s.307-.05.42-.11a.918.918 0 0 0 .319-.32l.111-.206v-5.032l.342.447c.188.246.366.473.395.505.031.033.054-.497.054-1.25v-1.31l-.38-.508-.38-.51-.031-2.314-.03-2.315-.11-.162a.922.922 0 0 0-.314-.258 1.134 1.134 0 0 0-.406-.096z"/></svg>