<svg xmlns="http://www.w3.org/2000/svg" version="1.0" viewBox="0 0 8391.526 2065.222"><g stroke="#4f71ad" stroke-width=".224"><path fill="#4f71ad" stroke-width=".022400000000000003" d="m1825.011 29.711.1 29.8 50.2 36.2 50.1 36.3h145.2l50.2-36.3 50.1-36.2.1-29.8V.011h-108v11.7l-.1 11.8-20.1 17.7-20.1 17.8h-49.3l-20.1-17.8-20.2-17.7-.1-11.8V.011h-108zM2.011 212.011v54l112.3.2 112.2.3.3 162.7.2 162.8h146v-326h226v-108h-597zM716.011 375.011v217h222.9c147.2 0 226.3-.4 233-1 28.2-2.9 52.9-13.6 71.3-30.9 14.8-13.9 23.1-26.5 28.2-42.7 4.1-13.2 4.8-22.3 4.4-57l-.3-31.9-3.1-8.5c-1.6-4.7-5.2-12.3-8-16.9-5-8.5-17.6-22.7-25.7-29.1l-4.4-3.5 9.3-8.8c10.3-9.7 16.5-18.3 22.3-30.9 6.2-13.2 6.6-16.5 6.5-50.3 0-31.8-1-41.2-5.5-54.8-9.6-28.9-32.3-50.4-63.9-60.5-22.8-7.3 1.6-6.6-255.7-6.9l-231.3-.3zm412-81v28h-279v-56h279zm0 156.5v32.5h-279v-31.8c0-17.5.3-32.2.7-32.5.3-.4 63.1-.7 139.5-.7h138.8zM1400.011 375.011v217h146v-434h-146zM1685.011 375.011v217h53.3l53.2-.1 186-136.5 186-136.6.3 136.6.2 136.6h135v-434H2192.311l-185.9 135.9-185.9 136-.3-136-.2-135.9h-135z"/><path fill="#294b87" stroke-width=".022400000000000003" d="M.011 1111.011v217h528v-109h-390v-64h229v-97h-229v-56h386v-108h-524zM671.011 1111.011v217h147v-173h312v173h147v-434h-147v164h-312v-164h-147zM1420.011 1111.011v217h528v-109h-390v-64h229v-97h-229v-56h386v-108h-524zM2092.011 948.011v54l203.8.2 203.7.3.3 35.2.2 35.3h-408v255h147l.2-75.3.3-75.2 148-.5c146.6-.6 148.1-.6 156.5-2.7 33.1-8.3 55-20.2 74.5-40.4 13.9-14.6 21.3-28.4 25.8-48.4 1.7-7.8 2-13.7 2.4-43 .5-38.1-.3-46.9-5.6-63.6-11.4-35.5-41.9-66.8-76.3-78.3-19.3-6.5 1.6-6-247-6.3l-225.8-.3zM2757.011 1111.011v217h147v-326h338v-108h-485zM3349.011 1111.011v217h606v-434h-606zm468-.5v108.5h-330v-217h330z"/><path fill="#002556" stroke-width=".022400000000000003" d="M2.011 1848.011v217h147v-325h295v325h148v-434h-590zM735.011 1848.011v217h606v-434h-606zm468 0v108h-330v-216h330zM1484.011 1848.011v217h539v-175h-138v66h-263v-216h262l.2 21.7.3 21.8 69.3.3 69.2.2v-153h-539zM2098.111 1631.711c0 .5 15.7 24.9 34.8 54.3l34.7 53.5 111.7.3 111.7.2v325h147v-325l118.3-.2 118.2-.3.3-54.3.2-54.2h-338.5c-186.2 0-338.5.3-338.4.7zM2951.811 1699.911c-24.7 37.8-44.8 69.1-44.8 69.5 0 .3 34.5.6 76.8.6h76.7l20.5 32.6c11.3 17.9 20.6 33 20.8 33.5.2.5-47.2 1-119.4 1.1l-119.7.3-73.9 113.5-73.9 113.5 73.8.3c40.6.1 74.3 0 74.8-.2.6-.2 18.8-29.2 40.5-64.5l39.5-64.1h216l40.6 64.2 40.5 64.3 80.3.3c70.5.2 80.1 0 79.4-1.3-.5-.8-64.1-98.4-141.3-217l-140.5-215.5-61 .1h-61zM3397.011 1761.511v130.5h406v173h146v-434h-147l-.2 81.7-.3 81.8-128.2.3-128.3.2v-164h-148zM4282.811 1699.911c-24.7 37.8-44.8 69.1-44.8 69.5 0 .3 34.5.6 76.8.6h76.7l20.5 32.6c11.3 17.9 20.6 33 20.8 33.5.2.5-47.2 1-119.4 1.1l-119.7.3-73.9 113.5-73.9 113.5 73.8.3c40.6.1 74.3 0 74.8-.2.6-.2 18.8-29.2 40.5-64.5l39.5-64.1h216l40.6 64.2 40.5 64.3 80.3.3c70.5.2 80.1 0 79.4-1.3-.5-.8-64.1-98.4-141.3-217l-140.5-215.5-61 .1h-61zM4920.011 1649.711c0 38.6-2.6 91.5-6.1 126.2-8.7 86.2-28 149.9-51.9 171.4-8.9 8-9.6 8.2-34.7 8.5l-22.3.3v109.1l36.3-.5c58.3-.8 80.6-4.8 104.1-18.6 24.9-14.6 43.5-36 58.5-67.1 25.4-52.9 35.9-111.1 38.7-213.8l.7-25.2h240.7v325h136v-434h-500zM5563.011 1848.011v217l230.8-.3c256.1-.3 233.2.3 254.4-6.7 31.5-10.5 57.6-33.7 67.9-60.5 6.8-17.5 7.3-22.4 7.3-68 .1-34.8-.2-42.4-1.7-50.5-3.1-17.1-8.4-30-16.9-41.5-14.9-20.1-34.6-32.1-65.7-39.8-8.6-2.1-9.2-2.1-168.8-2.4l-160.3-.3v-164h-147zm411 76v32h-264v-64h264zM6238.011 1848.011v217h147v-173h312v173h147v-434h-147v164h-312v-164h-147zM6988.011 1848.011v217H7094.711l185.9-136.4 185.9-136.4.3 136.4.2 136.4h136v-434h-54.2l-54.3.1-185 135.4c-101.7 74.5-185.3 135.4-185.7 135.5-.5 0-.8-61-.8-135.5v-135.5h-135zM7745.011 1848.011v217h147v-173h67.5l112 86.5 112 86.4 104.5.1c61.5 0 104-.4 103.5-.9-.6-.5-67.1-51.4-148-113.1-80.8-61.7-147.8-113-148.7-113.9-1.5-1.5 7.6-8.9 127.8-103.6l129.4-102-95.5-.3-95.4-.2-101.3 82-101.3 82h-66.5v-164h-147z"/></g></svg>